200.ufo
<glyph name="quotedbl" format="1">
  <advance width="555.600"/>
  <unicode hex="0022"/>
  <outline>
    <contour>
      <point x="156.6" y="1073.6" type="line"/>
      <point x="186" y="1073.6" type="line"/>
      <point x="213.8" y="1502.8" type="line"/>
      <point x="123.8" y="1502.8" type="line"/>
    </contour>
    <contour>
      <point x="364.8" y="1073.6" type="line"/>
      <point x="394.2" y="1073.6" type="line"/>
      <point x="423.2" y="1502.8" type="line"/>
      <point x="332" y="1502.8" type="line"/>
    </contour>
  </outline>
</glyph>
<glyph name="ampersand" format="1">
  <advance width="1499"/>
  <unicode hex="0026"/>
  <outline>
    <contour>
      <point x="477" y="1474"/>
      <point x="326" y="1355"/>
      <point x="325.6" y="1175.8" type="curve" smooth="yes"/>
      <point x="325.6" y="1045.4"/>
      <point x="386" y="963"/>
      <point x="520.2" y="806" type="curve"/>
      <point x="317" y="681"/>
      <point x="211" y="527"/>
      <point x="210.8" y="357" type="curve" smooth="yes"/>
      <point x="211" y="110"/>
      <point x="383" y="-19"/>
      <point x="711.8" y="-19.4" type="curve" smooth="yes"/>
      <point x="859" y="-19"/>
      <point x="975" y="31"/>
      <point x="1125" y="131" type="curve"/>
      <point x="1275" y="-26" type="line"/>
      <point x="1327.6" y="16.4" type="line"/>
      <point x="1175" y="181" type="line"/>
      <point x="1269" y="273"/>
      <point x="1330" y="352"/>
      <point x="1380.8" y="479.8" type="curve"/>
      <point x="1332" y="518" type="line"/>
      <point x="1276" y="375"/>
      <point x="1204" y="300"/>
      <point x="1131.2" y="231.4" type="curve"/>
      <point x="631" y="787" type="line"/>
      <point x="856" y="880"/>
      <point x="1020" y="1006.2"/>
      <point x="1020" y="1167.4" type="curve" smooth="yes"/>
      <point x="1020" y="1351"/>
      <point x="893" y="1474"/>
      <point x="703.6" y="1474" type="curve" smooth="yes"/>
    </contour>
    <contour>
      <point x="1082" y="182.4" type="line"/>
      <point x="958" y="84"/>
      <point x="856" y="45"/>
      <point x="724" y="45" type="curve" smooth="yes"/>
      <point x="441" y="45"/>
      <point x="294" y="155"/>
      <point x="294" y="365" type="curve" smooth="yes"/>
      <point x="294" y="514"/>
      <point x="390" y="647"/>
      <point x="573.4" y="753.6" type="curve"/>
    </contour>
    <contour>
      <point x="854" y="1411"/>
      <point x="956" y="1318"/>
      <point x="955.6" y="1177.6" type="curve"/>
      <point x="955.6" y="1020.43"/>
      <point x="770" y="914"/>
      <point x="587" y="833" type="curve"/>
      <point x="423" y="1009"/>
      <point x="391" y="1064"/>
      <point x="391" y="1180" type="curve"/>
      <point x="391" y="1319"/>
      <point x="515" y="1411"/>
      <point x="700" y="1411" type="curve"/>
    </contour>
  </outline>
</glyph>
<glyph name="quotesingle" format="1">
  <advance width="218.8"/>
  <unicode hex="0027"/>
  <outline>
    <contour>
      <point x="74.2" y="1003.4" type="line"/>
      <point x="129.6" y="1003.4" type="line"/>
      <point x="141.2" y="1457.2" type="line"/>
      <point x="67.6" y="1457.2" type="line"/>
    </contour>
  </outline>
</glyph>
<glyph name="parenleft" format="1">
  <advance width="689.800"/>
  <unicode hex="0028"/>
  <outline>
    <contour>
      <point x="459" y="-287.4" type="curve"/>
      <point x="548.2" y="-287.4" type="line"/>
      <point x="337.2" y="31.8"/>
      <point x="302.8" y="385.6"/>
      <point x="302.8" y="707.4" type="curve" smooth="yes"/>
      <point x="302.8" y="987.8"/>
      <point x="323.8" y="1225"/>
      <point x="550.4" y="1579.6" type="curve"/>
      <point x="456.8" y="1579.6" type="line"/>
      <point x="281.2" y="1312"/>
      <point x="205.8" y="1014"/>
      <point x="205.8" y="701.8" type="curve" smooth="yes"/>
      <point x="205.8" y="335"/>
      <point x="293.2" y="-58"/>
    </contour>
  </outline>
</glyph>
<glyph name="parenright" format="1">
  <advance width="687.600"/>
  <unicode hex="0029"/>
  <outline>
    <contour>
      <point x="129.2" y="-287.4" type="curve"/>
      <point x="219.2" y="-287.4" type="line"/>
      <point x="387.6" y="-52.2"/>
      <point x="471.4" y="332"/>
      <point x="471.4" y="698.2" type="curve" smooth="yes"/>
      <point x="471.4" y="1011"/>
      <point x="394.8" y="1317.8"/>
      <point x="221.8" y="1579.6" type="curve"/>
      <point x="127.8" y="1579.6" type="line"/>
      <point x="347.2" y="1242.4"/>
      <point x="374.4" y="989.4"/>
      <point x="374.4" y="704.8" type="curve" smooth="yes"/>
      <point x="374.4" y="387.2"/>
      <point x="347.4" y="49.2"/>
    </contour>
  </outline>
</glyph>
<glyph name="asterisk" format="1">
  <advance width="1223.600"/>
  <unicode hex="002A"/>
  <outline>
    <contour>
      <point x="391.2" y="603.6" type="line"/>
      <point x="603.8" y="1005" type="line"/>
      <point x="831.6" y="605.2" type="line"/>
      <point x="934.8" y="670"/>
      <point x="814.4" y="604.6"/>
      <point x="917.6" y="669.4" type="curve"/>
      <point x="749.6" y="884.2"/>
      <point x="690.4" y="974.6"/>
      <point x="650.4" y="1031.8" type="curve"/>
      <point x="1041.8" y="1122" type="line"/>
      <point x="1012.8" y="1227.2" type="line"/>
      <point x="631" y="1066.2" type="line"/>
      <point x="671.6" y="1500.4" type="line"/>
      <point x="551.2" y="1500.4" type="line"/>
      <point x="589.2" y="1066.2" type="line"/>
      <point x="209.2" y="1227.2" type="line"/>
      <point x="183" y="1122" type="line"/>
      <point x="565.2" y="1031.8" type="line"/>
      <point x="308.6" y="669.4" type="line"/>
    </contour>
  </outline>
</glyph>
<glyph name="plus" format="1">
  <advance width="1152.6"/>
  <unicode hex="002B"/>
  <outline>
    <contour>
      <point x="539.6" y="1049.6" type="line"/>
      <point x="539.6" y="655" type="line"/>
      <point x="161" y="655" type="line"/>
      <point x="161" y="603.8" type="line"/>
      <point x="540" y="603.8" type="line"/>
      <point x="540" y="197.2" type="line"/>
      <point x="609.8" y="197.2" type="line"/>
      <point x="609.8" y="603.8" type="line"/>
      <point x="979.2" y="603.8" type="line"/>
      <point x="979.2" y="655" type="line"/>
      <point x="609.6" y="655" type="line"/>
      <point x="609.6" y="1049.6" type="line"/>
    </contour>
  </outline>
</glyph>
<glyph name="period" format="1">
  <advance width="445.800"/>
  <unicode hex="002E"/>
  <outline>
    <contour>
      <point x="227.8" y="-21" type="curve" smooth="yes"/>
      <point x="292" y="-21"/>
      <point x="302.8" y="22.6"/>
      <point x="302.8" y="56.6" type="curve" smooth="yes"/>
      <point x="302.8" y="90.4"/>
      <point x="292" y="133.6"/>
      <point x="227.8" y="133.6" type="curve" smooth="yes"/>
      <point x="161.4" y="133.6"/>
      <point x="152" y="90.4"/>
      <point x="152" y="56.6" type="curve" smooth="yes"/>
      <point x="152" y="24"/>
      <point x="163.6" y="-21"/>
    </contour>
  </outline>
</glyph>
<glyph name="slash" format="1">
  <advance width="1021.400"/>
  <unicode hex="002F"/>
  <outline>
    <contour>
      <point x="128.6" y="-254" type="line"/>
      <point x="174.4" y="-254" type="line"/>
      <point x="908.4" y="1403.2" type="line"/>
      <point x="861" y="1403.2" type="line"/>
    </contour>
  </outline>
</glyph>
<glyph name="three" format="1">
  <advance width="1196"/>
  <unicode hex="0033"/>
  <outline>
    <contour>
      <point x="558" y="-20" type="curve" smooth="yes"/>
      <point x="879" y="-20"/>
      <point x="1049" y="141"/>
      <point x="1049" y="391" type="curve" smooth="yes"/>
      <point x="1049" y="639"/>
      <point x="894" y="747"/>
      <point x="690" y="778" type="curve"/>
      <point x="885" y="810"/>
      <point x="1012" y="901"/>
      <point x="1012" y="1129" type="curve" smooth="yes"/>
      <point x="1012" y="1361"/>
      <point x="802" y="1476"/>
      <point x="559" y="1476" type="curve" smooth="yes"/>
      <point x="422" y="1476"/>
      <point x="278" y="1437"/>
      <point x="155" y="1361" type="curve"/>
      <point x="190" y="1297" type="line"/>
      <point x="298" y="1365"/>
      <point x="442" y="1404"/>
      <point x="565" y="1404" type="curve" smooth="yes"/>
      <point x="754" y="1404"/>
      <point x="932" y="1331"/>
      <point x="932" y="1125" type="curve" smooth="yes"/>
      <point x="932" y="858"/>
      <point x="672" y="828"/>
      <point x="461" y="817" type="curve"/>
      <point x="431" y="817" type="line"/>
      <point x="431" y="738" type="line"/>
      <point x="459" y="738" type="line"/>
      <point x="728" y="733"/>
      <point x="973" y="690"/>
      <point x="973" y="383" type="curve" smooth="yes"/>
      <point x="973" y="150"/>
      <point x="815" y="50"/>
      <point x="566" y="50" type="curve" smooth="yes"/>
      <point x="400" y="50"/>
      <point x="265" y="105"/>
      <point x="205" y="142" type="curve"/>
      <point x="169" y="83" type="line"/>
      <point x="213" y="56"/>
      <point x="349" y="-20"/>
    </contour>
  </outline>
</glyph>
<glyph name="four" format="1">
  <advance width="1196"/>
  <unicode hex="0034"/>
  <outline>
    <contour>
      <point x="830.4" y="0" type="line"/>
      <point x="910.4" y="0" type="line"/>
      <point x="910.4" y="408.2" type="line"/>
      <point x="1087" y="408.2" type="line"/>
      <point x="1096" y="476.2" type="line"/>
      <point x="910.4" y="476.2" type="line"/>
      <point x="910" y="1456" type="line"/>
      <point x="856" y="1456" type="line"/>
      <point x="129.8" y="515.2" type="line"/>
      <point x="129.8" y="408.2" type="line"/>
      <point x="830.4" y="408.2" type="line"/>
    </contour>
    <contour>
      <point x="218.2" y="479.4" type="line"/>
      <point x="829" y="1313" type="line"/>
      <point x="829.2" y="479.4" type="line"/>
    </contour>
  </outline>
</glyph>
<glyph name="colon" format="1">
  <advance width="464"/>
  <unicode hex="003A"/>
  <outline>
    <contour>
      <point x="161.4" y="0" type="line"/>
      <point x="280.6" y="0" type="line"/>
      <point x="280.6" y="150.6" type="line"/>
      <point x="161.4" y="150.6" type="line"/>
    </contour>
    <contour>
      <point x="161.4" y="893.8" type="line"/>
      <point x="280.6" y="893.8" type="line"/>
      <point x="280.6" y="1052.6" type="line"/>
      <point x="161.4" y="1052.6" type="line"/>
    </contour>
  </outline>
</glyph>
<glyph name="semicolon" format="1">
  <advance width="448.800"/>
  <unicode hex="003B"/>
  <outline>
    <contour>
      <point x="117" y="-298.6" type="line"/>
      <point x="162" y="-298.6" type="line"/>
      <point x="282.8" y="119.6" type="line"/>
      <point x="172.6" y="119.6" type="line"/>
    </contour>
    <contour>
      <point x="228" y="884" type="curve" smooth="yes"/>
      <point x="292" y="884"/>
      <point x="303" y="928"/>
      <point x="303" y="962" type="curve" smooth="yes"/>
      <point x="303" y="996"/>
      <point x="292" y="1039"/>
      <point x="228" y="1039" type="curve" smooth="yes"/>
      <point x="161" y="1039"/>
      <point x="152" y="996"/>
      <point x="152" y="962" type="curve" smooth="yes"/>
      <point x="152" y="929"/>
      <point x="164" y="884"/>
    </contour>
  </outline>
</glyph>
<glyph name="less" format="1">
  <advance width="1228.6"/>
  <unicode hex="003C"/>
  <outline>
    <contour>
      <point x="1051.8" y="105" type="line"/>
      <point x="1051.8" y="105"/>
      <point x="1054.4" y="184.8"/>
      <point x="1054.6" y="184.6" type="curve" smooth="yes"/>
      <point x="198.4" y="585" type="line"/>
      <point x="1056.6" y="1006" type="line"/>
      <point x="1056.6" y="1093.8" type="line"/>
      <point x="116.6" y="610.4" type="line"/>
      <point x="116.6" y="553.4" type="line"/>
    </contour>
  </outline>
</glyph>
<glyph name="greater" format="1">
  <advance width="1244.200"/>
  <unicode hex="003E"/>
  <outline>
    <contour>
      <point x="151.4" y="1016.6" type="line"/>
      <point x="993" y="585" type="line"/>
      <point x="147.8" y="195" type="line"/>
      <point x="147.8" y="112.8" type="line"/>
      <point x="1087.8" y="551" type="line"/>
      <point x="1087.8" y="609.6" type="line"/>
      <point x="151.4" y="1103.2" type="line"/>
    </contour>
  </outline>
</glyph>
<glyph name="question" format="1">
  <advance width="901.8"/>
  <unicode hex="003F"/>
  <outline>
    <contour>
      <point x="335.8" y="391.2" type="curve"/>
      <point x="381.8" y="391.2" type="line"/>
      <point x="482.2" y="771.8"/>
      <point x="725" y="923.8"/>
      <point x="725" y="1220.8" type="curve" smooth="yes"/>
      <point x="725" y="1396.4"/>
      <point x="593.2" y="1515"/>
      <point x="405.2" y="1515" type="curve" smooth="yes"/>
      <point x="285.8" y="1515"/>
      <point x="184.6" y="1475.8"/>
      <point x="115.8" y="1428.4" type="curve"/>
      <point x="123.4" y="1340.4" type="line"/>
      <point x="161.6" y="1364.8"/>
      <point x="282" y="1430.4"/>
      <point x="391" y="1430.4" type="curve" smooth="yes"/>
      <point x="537.8" y="1430.4"/>
      <point x="629.2" y="1367.6"/>
      <point x="629" y="1212.8" type="curve"/>
      <point x="629" y="940"/>
      <point x="328.8" y="620"/>
    </contour>
    <contour>
      <point x="365" y="-16.6" type="curve" smooth="yes"/>
      <point x="440.6" y="-16.6"/>
      <point x="456.8" y="30.4"/>
      <point x="456.8" y="70.4" type="curve" smooth="yes"/>
      <point x="456.8" y="107.8"/>
      <point x="440.6" y="156"/>
      <point x="365" y="156" type="curve" smooth="yes"/>
      <point x="291" y="156"/>
      <point x="279.4" y="107.8"/>
      <point x="279.4" y="70.4" type="curve" smooth="yes"/>
      <point x="279.4" y="33"/>
      <point x="290.8" y="-16.6"/>
    </contour>
  </outline>
</glyph>
<glyph name="bracketleft" format="1">
  <advance width="616.8"/>
  <unicode hex="005B"/>
  <outline>
    <contour>
      <point x="179.2" y="-345.8" type="line"/>
      <point x="600.8" y="-345.8" type="line"/>
      <point x="600.8" y="-280.6" type="line"/>
      <point x="247.8" y="-280.6" type="line"/>
      <point x="247.8" y="1369.8" type="line"/>
      <point x="600.8" y="1369.8" type="line"/>
      <point x="600.8" y="1437.6" type="line"/>
      <point x="179.2" y="1437.6" type="line"/>
    </contour>
  </outline>
</glyph>
<glyph name="asciicircum" format="1">
  <advance width="1377.4"/>
  <unicode hex="005E"/>
  <outline>
    <contour>
      <point x="641.6" y="1517.2" type="line"/>
      <point x="224.4" y="624" type="line"/>
      <point x="282.4" y="624" type="line"/>
      <point x="675" y="1451.8" type="line"/>
      <point x="1081.8" y="624" type="line"/>
      <point x="1143.4" y="624" type="line"/>
      <point x="704" y="1517.2" type="line"/>
    </contour>
  </outline>
</glyph>
<glyph name="underscore" format="1">
  <advance width="1090"/>
  <unicode hex="005F"/>
  <outline>
    <contour>
      <point x="107.4" y="-313.6" type="line"/>
      <point x="957" y="-313.6" type="line"/>
      <point x="957" y="-242.4" type="line"/>
      <point x="107.4" y="-242.4" type="line"/>
    </contour>
  </outline>
</glyph>
<glyph name="b" format="1">
  <advance width="1249.400"/>
  <unicode hex="0062"/>
  <outline>
    <contour>
      <point x="188" y="1540" type="line"/>
      <point x="188" y="0" type="line"/>
      <point x="254" y="0" type="line"/>
      <point x="270" y="291" type="line"/>
      <point x="221" y="291" type="line"/>
      <point x="257" y="158"/>
      <point x="375" y="-20"/>
      <point x="656" y="-20" type="curve" smooth="yes"/>
      <point x="960" y="-20"/>
      <point x="1126" y="207"/>
      <point x="1126" y="533" type="curve" smooth="yes"/>
      <point x="1126" y="887"/>
      <point x="978" y="1102"/>
      <point x="660" y="1102" type="curve" smooth="yes"/>
      <point x="471" y="1102"/>
      <point x="317" y="980"/>
      <point x="253" y="806" type="curve"/>
      <point x="285" y="810" type="line"/>
      <point x="284" y="1070" type="line"/>
      <point x="284" y="1560" type="line"/>
    </contour>
    <contour>
      <point x="1034" y="536" type="curve" smooth="yes"/>
      <point x="1034" y="267"/>
      <point x="926" y="49"/>
      <point x="656" y="49" type="curve" smooth="yes"/>
      <point x="437" y="49"/>
      <point x="333" y="167"/>
      <point x="282" y="295" type="curve"/>
      <point x="282" y="587" type="line"/>
      <point x="280" y="851"/>
      <point x="448" y="1033"/>
      <point x="660" y="1033" type="curve" smooth="yes"/>
      <point x="945" y="1033"/>
      <point x="1034" y="804"/>
    </contour>
    <contour>
      <point x="687" y="1198" type="move" name="top"/>
    </contour>
  </outline>
</glyph>
<glyph name="c" format="1">
  <advance width="978.600"/>
  <unicode hex="0063"/>
  <outline>
    <contour>
      <point x="915" y="261" type="line"/>
      <point x="878" y="130"/>
      <point x="745" y="48"/>
      <point x="597" y="48" type="curve" smooth="yes"/>
      <point x="359" y="48"/>
      <point x="215" y="238"/>
      <point x="215" y="541" type="curve" smooth="yes"/>
      <point x="215" y="844"/>
      <point x="359" y="1034"/>
      <point x="597" y="1034" type="curve" smooth="yes"/>
      <point x="746" y="1034"/>
      <point x="879" y="952"/>
      <point x="915" y="820" type="curve"/>
      <point x="931" y="820" type="line"/>
      <point x="982" y="842" type="line"/>
      <point x="943" y="1002"/>
      <point x="784" y="1102"/>
      <point x="597" y="1102" type="curve" smooth="yes"/>
      <point x="303" y="1102"/>
      <point x="125" y="886"/>
      <point x="125" y="541" type="curve" smooth="yes"/>
      <point x="125" y="196"/>
      <point x="303" y="-20"/>
      <point x="597" y="-20" type="curve" smooth="yes"/>
      <point x="784" y="-20"/>
      <point x="943" y="80"/>
      <point x="982" y="240" type="curve"/>
      <point x="934" y="261" type="line"/>
    </contour>
    <contour>
      <point x="612" y="0" type="move" name="bot"/>
    </contour>
    <contour>
      <point x="613" y="1082" type="move" name="top"/>
    </contour>
  </outline>
</glyph>
<glyph name="d" format="1">
  <advance width="1241.4"/>
  <unicode hex="0064"/>
  <outline>
    <contour>
      <point x="961" y="1540" type="line"/>
      <point x="961" y="1181" type="line"/>
      <point x="974" y="803" type="line"/>
      <point x="1003" y="804" type="line"/>
      <point x="975" y="987"/>
      <point x="821" y="1102"/>
      <point x="603" y="1102" type="curve" smooth="yes"/>
      <point x="309" y="1102"/>
      <point x="125" y="888"/>
      <point x="125" y="548" type="curve" smooth="yes"/>
      <point x="125" y="199"/>
      <point x="304" y="-20"/>
      <point x="589" y="-20" type="curve" smooth="yes"/>
      <point x="793" y="-20"/>
      <point x="953" y="84"/>
      <point x="1003" y="249" type="curve"/>
      <point x="970" y="255" type="line"/>
      <point x="983" y="0" type="line"/>
      <point x="1054" y="0" type="line"/>
      <point x="1054" y="1560" type="line"/>
    </contour>
    <contour>
      <point x="589" y="49" type="curve" smooth="yes"/>
      <point x="361" y="49"/>
      <point x="218" y="241"/>
      <point x="218" y="547" type="curve" smooth="yes"/>
      <point x="218" y="846"/>
      <point x="367" y="1033"/>
      <point x="603" y="1033" type="curve" smooth="yes"/>
      <point x="764" y="1033"/>
      <point x="897" y="950"/>
      <point x="963" y="778" type="curve"/>
      <point x="963" y="279" type="line"/>
      <point x="909" y="138"/>
      <point x="765" y="49"/>
    </contour>
    <contour>
      <point x="1009" y="1251" type="move" name="mid"/>
    </contour>
    <contour>
      <point x="605" y="1082" type="move" name="top"/>
    </contour>
    <contour>
      <point x="1020" y="1082" type="move" name="caron.alt"/>
    </contour>
  </outline>
</glyph>
<glyph name="e" format="1">
  <advance width="1121.2"/>
  <unicode hex="0065"/>
  <outline>
    <contour>
      <point x="605" y="-20" type="curve" smooth="yes"/>
      <point x="757" y="-20"/>
      <point x="871" y="19"/>
      <point x="972" y="73" type="curve"/>
      <point x="938" y="139" type="line"/>
      <point x="927" y="139" type="line"/>
      <point x="794" y="76"/>
      <point x="706" y="53"/>
      <point x="619" y="53" type="curve" smooth="yes"/>
      <point x="395" y="53"/>
      <point x="210" y="212"/>
      <point x="210" y="573" type="curve"/>
      <point x="171" y="547" type="line"/>
      <point x="990" y="547" type="line"/>
      <point x="990" y="547"/>
      <point x="995" y="575"/>
      <point x="995" y="609" type="curve" smooth="yes"/>
      <point x="995" y="917"/>
      <point x="855" y="1102"/>
      <point x="605" y="1102" type="curve" smooth="yes"/>
      <point x="354" y="1103"/>
      <point x="125" y="901"/>
      <point x="125" y="535" type="curve" smooth="yes"/>
      <point x="125" y="201"/>
      <point x="325" y="-20"/>
    </contour>
    <contour>
      <point x="215" y="608" type="line"/>
      <point x="239" y="854"/>
      <point x="380" y="1031"/>
      <point x="613" y="1031" type="curve" smooth="yes"/>
      <point x="827" y="1031"/>
      <point x="916" y="885"/>
      <point x="924" y="608" type="curve"/>
    </contour>
    <contour>
      <point x="698" y="0" type="move" name="ogonek"/>
    </contour>
    <contour>
      <point x="606" y="0" type="move" name="bot"/>
    </contour>
    <contour>
      <point x="607" y="1052" type="move" name="top"/>
    </contour>
  </outline>
</glyph>
<glyph name="g" format="1">
  <advance width="1266.600"/>
  <unicode hex="0067"/>
  <outline>
    <contour>
      <point x="578" y="-405" type="curve" smooth="yes"/>
      <point x="982" y="-405"/>
      <point x="1090" y="-200"/>
      <point x="1090" y="120" type="curve" smooth="yes"/>
      <point x="1090" y="1082" type="line"/>
      <point x="1001" y="1082" type="line"/>
      <point x="988" y="834" type="line"/>
      <point x="1020" y="832" type="line"/>
      <point x="972" y="977"/>
      <point x="843" y="1102"/>
      <point x="620" y="1102" type="curve" smooth="yes"/>
      <point x="223" y="1102"/>
      <point x="123" y="782"/>
      <point x="123" y="531" type="curve" smooth="yes"/>
      <point x="123" y="310"/>
      <point x="243" y="0"/>
      <point x="604" y="0" type="curve" smooth="yes"/>
      <point x="881" y="0"/>
      <point x="997" y="174"/>
      <point x="1029" y="295" type="curve"/>
      <point x="995" y="291" type="line"/>
      <point x="995" y="112" type="line" smooth="yes"/>
      <point x="995" y="-209"/>
      <point x="884" y="-335"/>
      <point x="563" y="-335" type="curve" smooth="yes"/>
      <point x="483" y="-335"/>
      <point x="345" y="-315"/>
      <point x="299" y="-297" type="curve"/>
      <point x="289" y="-297" type="line"/>
      <point x="289" y="-363" type="line"/>
      <point x="330" y="-377"/>
      <point x="448" y="-405"/>
    </contour>
    <contour>
      <point x="599" y="70" type="curve" smooth="yes"/>
      <point x="312" y="70"/>
      <point x="216" y="353"/>
      <point x="216" y="540" type="curve" smooth="yes"/>
      <point x="216" y="740"/>
      <point x="308" y="1033"/>
      <point x="601" y="1033" type="curve" smooth="yes"/>
      <point x="874" y="1033"/>
      <point x="961" y="854"/>
      <point x="995" y="763" type="curve"/>
      <point x="995" y="321" type="line"/>
      <point x="962" y="250"/>
      <point x="880" y="70"/>
    </contour>
    <contour>
      <point x="633.3" y="0" type="move" name="bot"/>
    </contour>
    <contour>
      <point x="633.3" y="1052" type="move" name="top"/>
    </contour>
  </outline>
</glyph>
<glyph name="i" format="1">
  <advance width="463"/>
  <unicode hex="0069"/>
  <outline>
    <component base="dotlessi"/>
    <component base="dotaccent" xOffset="89" yOffset="30"/>
    <contour>
      <point x="238" y="0" type="move" name="ogonek"/>
    </contour>
  </outline>
</glyph>
<glyph name="l" format="1">
  <advance width="585.800"/>
  <unicode hex="006C"/>
  <outline>
    <contour>
      <point x="430" y="-10" type="curve" smooth="yes"/>
      <point x="492" y="-10"/>
      <point x="541" y="-7"/>
      <point x="566" y="-4" type="curve"/>
      <point x="566" y="60" type="line"/>
      <point x="554" y="58"/>
      <point x="501" y="54"/>
      <point x="447" y="54" type="curve" smooth="yes"/>
      <point x="307" y="54"/>
      <point x="281" y="113"/>
      <point x="281" y="227" type="curve" smooth="yes"/>
      <point x="281" y="1560" type="line"/>
      <point x="188" y="1540" type="line"/>
      <point x="188" y="230" type="line" smooth="yes"/>
      <point x="188" y="14"/>
      <point x="331" y="-10"/>
    </contour>
    <contour>
      <point x="238" y="816" type="move" name="mid"/>
    </contour>
    <contour>
      <point x="551" y="850" type="move" name="mid_2"/>
    </contour>
    <contour>
      <point x="341" y="1455" type="move" name="top"/>
    </contour>
  </outline>
</glyph>
<glyph name="n" format="1">
  <advance width="1167.400"/>
  <unicode hex="006E"/>
  <outline>
    <contour>
      <point x="432" y="1102"/>
      <point x="314" y="1003"/>
      <point x="263" y="865" type="curve"/>
      <point x="281" y="865" type="line"/>
      <point x="265" y="1082" type="line"/>
      <point x="189" y="1082" type="line"/>
      <point x="189" y="0" type="line"/>
      <point x="281" y="0" type="line"/>
      <point x="281" y="672" type="line" smooth="yes"/>
      <point x="281" y="841"/>
      <point x="352" y="1033"/>
      <point x="645" y="1033" type="curve" smooth="yes"/>
      <point x="842" y="1033"/>
      <point x="900" y="907"/>
      <point x="899" y="712" type="curve"/>
      <point x="899" y="0" type="line"/>
      <point x="991" y="0" type="line"/>
      <point x="991" y="661" type="line" smooth="yes"/>
      <point x="991" y="967"/>
      <point x="887" y="1102"/>
      <point x="646" y="1102" type="curve" smooth="yes"/>
    </contour>
    <contour>
      <point x="583.7" y="0" type="move" name="bot"/>
    </contour>
    <contour>
      <point x="644" y="1052" type="move" name="top"/>
    </contour>
  </outline>
</glyph>
<glyph name="o" format="1">
  <advance width="1209.200"/>
  <unicode hex="006F"/>
  <outline>
    <contour>
      <point x="605" y="48" type="curve" smooth="yes"/>
      <point x="371" y="48"/>
      <point x="215" y="256"/>
      <point x="215" y="539" type="curve" smooth="yes"/>
      <point x="215" y="840"/>
      <point x="371" y="1034"/>
      <point x="605" y="1034" type="curve" smooth="yes"/>
      <point x="838" y="1034"/>
      <point x="993" y="839"/>
      <point x="993" y="538" type="curve" smooth="yes"/>
      <point x="993" y="256"/>
      <point x="838" y="48"/>
    </contour>
    <contour>
      <point x="605" y="-20" type="curve" smooth="yes"/>
      <point x="892" y="-20"/>
      <point x="1084" y="216"/>
      <point x="1084" y="541" type="curve" smooth="yes"/>
      <point x="1084" y="881"/>
      <point x="892" y="1102"/>
      <point x="605" y="1102" type="curve" smooth="yes"/>
      <point x="317" y="1102"/>
      <point x="125" y="881"/>
      <point x="125" y="541" type="curve" smooth="yes"/>
      <point x="125" y="216"/>
      <point x="317" y="-20"/>
    </contour>
    <contour>
      <point x="659" y="0" type="move" name="ogonek"/>
    </contour>
    <contour>
      <point x="604.6" y="0" type="move" name="bot"/>
    </contour>
    <contour>
      <point x="608" y="1082" type="move" name="top"/>
    </contour>
  </outline>
</glyph>
<glyph name="p" format="1">
  <advance width="1240.800"/>
  <unicode hex="0070"/>
  <outline>
    <contour>
      <point x="188" y="-490" type="line"/>
      <point x="281" y="-483" type="line"/>
      <point x="281" y="-101" type="line"/>
      <point x="266" y="308" type="line"/>
      <point x="233" y="295" type="line"/>
      <point x="280" y="83"/>
      <point x="441" y="-20"/>
      <point x="649" y="-20" type="curve" smooth="yes"/>
      <point x="928" y="-20"/>
      <point x="1116" y="184"/>
      <point x="1116" y="537" type="curve" smooth="yes"/>
      <point x="1116" y="911"/>
      <point x="934" y="1102"/>
      <point x="655" y="1102" type="curve" smooth="yes"/>
      <point x="430" y="1102"/>
      <point x="306" y="960"/>
      <point x="257" y="787" type="curve"/>
      <point x="271" y="781" type="line"/>
      <point x="258" y="1082" type="line"/>
      <point x="188" y="1082" type="line"/>
    </contour>
    <contour>
      <point x="649" y="49" type="curve" smooth="yes"/>
      <point x="434" y="49"/>
      <point x="320" y="164"/>
      <point x="276" y="336" type="curve"/>
      <point x="276" y="557" type="line"/>
      <point x="276" y="815"/>
      <point x="379" y="1033"/>
      <point x="655" y="1033" type="curve" smooth="yes"/>
      <point x="893" y="1033"/>
      <point x="1023" y="866"/>
      <point x="1023" y="537" type="curve" smooth="yes"/>
      <point x="1023" y="229"/>
      <point x="887" y="49"/>
    </contour>
    <contour>
      <point x="660" y="0" type="move" name="bot"/>
    </contour>
    <contour>
      <point x="660" y="1052" type="move" name="top"/>
    </contour>
  </outline>
</glyph>
<glyph name="q" format="1">
  <advance width="1295.600"/>
  <unicode hex="0071"/>
  <outline>
    <contour>
      <point x="302" y="1102"/>
      <point x="125" y="874"/>
      <point x="125" y="537" type="curve" smooth="yes"/>
      <point x="125" y="224"/>
      <point x="321" y="-20"/>
      <point x="602" y="-20" type="curve" smooth="yes"/>
      <point x="896" y="-20"/>
      <point x="1013" y="167"/>
      <point x="1050" y="331" type="curve"/>
      <point x="1025" y="349" type="line"/>
      <point x="1018" y="-135" type="line"/>
      <point x="1018" y="-491" type="line"/>
      <point x="1108" y="-487" type="line"/>
      <point x="1108" y="1082" type="line"/>
      <point x="1018" y="1082" type="line"/>
      <point x="997" y="812" type="line"/>
      <point x="1018" y="812" type="line"/>
      <point x="953" y="990"/>
      <point x="820" y="1102"/>
      <point x="610" y="1102" type="curve" smooth="yes"/>
    </contour>
    <contour>
      <point x="908" y="1033"/>
      <point x="1005" y="833"/>
      <point x="1005" y="595" type="curve"/>
      <point x="1009" y="289"/>
      <point x="931" y="49"/>
      <point x="611" y="49" type="curve" smooth="yes"/>
      <point x="338" y="49"/>
      <point x="215" y="277"/>
      <point x="215" y="537" type="curve" smooth="yes"/>
      <point x="215" y="809"/>
      <point x="326" y="1033"/>
      <point x="614" y="1033" type="curve" smooth="yes"/>
    </contour>
  </outline>
</glyph>
<glyph name="braceleft" format="1">
  <advance width="826.6"/>
  <unicode hex="007B"/>
  <outline>
    <contour>
      <point x="617.6" y="-285.8" type="curve"/>
      <point x="617.6" y="-231.4" type="line"/>
      <point x="465.4" y="-229.4"/>
      <point x="405.8" y="-140.6"/>
      <point x="405.8" y="57.6" type="curve" smooth="yes"/>
      <point x="405.8" y="316.2" type="line" smooth="yes"/>
      <point x="405.8" y="491.2"/>
      <point x="369.4" y="568.6"/>
      <point x="224.8" y="608.8" type="curve"/>
      <point x="365.2" y="659.8"/>
      <point x="406.2" y="749.6"/>
      <point x="405.8" y="916.4" type="curve"/>
      <point x="405.8" y="1176.6" type="line" smooth="yes"/>
      <point x="405.8" y="1384.4"/>
      <point x="468.8" y="1460.8"/>
      <point x="617.6" y="1462.8" type="curve"/>
      <point x="617.6" y="1521.6" type="line"/>
      <point x="442.8" y="1520.4"/>
      <point x="355.2" y="1380"/>
      <point x="355.2" y="1205.2" type="curve" smooth="yes"/>
      <point x="355.2" y="1008.6" type="line" smooth="yes"/>
      <point x="355.2" y="822.8"/>
      <point x="338.6" y="642.4"/>
      <point x="139.8" y="642.6" type="curve"/>
      <point x="139.8" y="586.6" type="line"/>
      <point x="347.2" y="583"/>
      <point x="355.2" y="411.2"/>
      <point x="355.2" y="220.2" type="curve" smooth="yes"/>
      <point x="355.2" y="86" type="line" smooth="yes"/>
      <point x="355.2" y="-127.8"/>
      <point x="408.8" y="-285.8"/>
    </contour>
  </outline>
</glyph>
<glyph name="bar" format="1">
  <advance width="146.6"/>
  <unicode hex="007C"/>
  <outline>
    <contour>
      <point x="30.8" y="1565" type="line"/>
      <point x="30.8" y="-435.8" type="line"/>
      <point x="91.8" y="-435.8" type="line"/>
      <point x="91.8" y="1565" type="line"/>
    </contour>
  </outline>
</glyph>
<glyph name="currency" format="1">
  <advance width="1469.400"/>
  <unicode hex="00A4"/>
  <outline>
    <contour>
      <point x="996.8" y="1006.4" type="line"/>
      <point x="922.6" y="1071.8"/>
      <point x="825" y="1109.4"/>
      <point x="719" y="1109.4" type="curve" smooth="yes"/>
      <point x="612.6" y="1109.4"/>
      <point x="516.2" y="1075.8"/>
      <point x="439" y="1007.2" type="curve"/>
      <point x="253.4" y="1181" type="line"/>
      <point x="216.6" y="1144.8" type="line"/>
      <point x="405" y="965.8" type="line"/>
      <point x="344" y="893"/>
      <point x="314" y="800.8"/>
      <point x="314" y="705.4" type="curve" smooth="yes"/>
      <point x="314" y="609"/>
      <point x="342.4" y="522.2"/>
      <point x="405" y="446.2" type="curve"/>
      <point x="217.6" y="269.4" type="line"/>
      <point x="253.4" y="229.2" type="line"/>
      <point x="440.6" y="404.6" type="line"/>
      <point x="516.2" y="337.8"/>
      <point x="612" y="303.6"/>
      <point x="719" y="303.6" type="curve" smooth="yes"/>
      <point x="826.4" y="303.6"/>
      <point x="921" y="337.2"/>
      <point x="996.8" y="403.2" type="curve"/>
      <point x="1182.6" y="228.4" type="line"/>
      <point x="1214.6" y="266.6" type="line"/>
      <point x="1032.8" y="446.2" type="line"/>
      <point x="1092.6" y="516.8"/>
      <point x="1121.6" y="605.4"/>
      <point x="1121.6" y="705.4" type="curve" smooth="yes"/>
      <point x="1121.6" y="795.8"/>
      <point x="1094.4" y="885"/>
      <point x="1031.8" y="965.8" type="curve"/>
      <point x="1215.6" y="1141.4" type="line"/>
      <point x="1182.6" y="1181" type="line"/>
    </contour>
    <contour>
      <point x="942.2" y="1062.6"/>
      <point x="1065" y="894.4"/>
      <point x="1065" y="705.4" type="curve" smooth="yes"/>
      <point x="1065" y="516.4"/>
      <point x="943.2" y="349.2"/>
      <point x="719" y="349.2" type="curve" smooth="yes"/>
      <point x="495.4" y="349.2"/>
      <point x="372.6" y="515.2"/>
      <point x="372.6" y="705.4" type="curve" smooth="yes"/>
      <point x="372.6" y="895.8"/>
      <point x="495.4" y="1062.6"/>
      <point x="719" y="1062.6" type="curve" smooth="yes"/>
    </contour>
  </outline>
</glyph>
<glyph name="copyright" format="1">
  <advance width="1973"/>
  <unicode hex="00A9"/>
  <outline>
    <contour>
      <point x="1027.8" y="225.2" type="curve" smooth="yes"/>
      <point x="1120.2" y="225.2"/>
      <point x="1219" y="253"/>
      <point x="1316.6" y="315.2" type="curve"/>
      <point x="1293.4" y="382.4" type="line"/>
      <point x="1191.4" y="319.6"/>
      <point x="1113.2" y="302.2"/>
      <point x="1023.8" y="302.2" type="curve" smooth="yes"/>
      <point x="799.6" y="302.2"/>
      <point x="604" y="476.2"/>
      <point x="604" y="773" type="curve" smooth="yes"/>
      <point x="604" y="1030.8"/>
      <point x="799.8" y="1218.6"/>
      <point x="1013.8" y="1218.6" type="curve" smooth="yes"/>
      <point x="1091.2" y="1218.6"/>
      <point x="1196.2" y="1190.2"/>
      <point x="1276.4" y="1121.4" type="curve"/>
      <point x="1312" y="1194.6" type="line"/>
      <point x="1212.4" y="1264.6"/>
      <point x="1108.4" y="1296.6"/>
      <point x="1013.6" y="1296.6" type="curve" smooth="yes"/>
      <point x="747.4" y="1296.6"/>
      <point x="502.2" y="1073.4"/>
      <point x="502.2" y="763.4" type="curve" smooth="yes"/>
      <point x="502.2" y="447.8"/>
      <point x="753" y="225.2"/>
    </contour>
    <contour>
      <point x="984.4" y="12.6" type="curve"/>
      <point x="645.287" y="12.6"/>
      <point x="259.8" y="231.543"/>
      <point x="259.8" y="762.8" type="curve"/>
      <point x="259.8" y="1294.43"/>
      <point x="645.469" y="1515.6"/>
      <point x="984.8" y="1515.6" type="curve"/>
      <point x="1323.12" y="1515.6"/>
      <point x="1713.2" y="1293.25"/>
      <point x="1713.2" y="763" type="curve"/>
      <point x="1713.2" y="232.726"/>
      <point x="1322.7" y="12.6"/>
    </contour>
    <contour>
      <point x="984.4" y="-48" type="curve" smooth="yes"/>
      <point x="1368" y="-48"/>
      <point x="1797.2" y="192.2"/>
      <point x="1797.2" y="762.8" type="curve" smooth="yes"/>
      <point x="1797.2" y="1333.6"/>
      <point x="1368.6" y="1577.2"/>
      <point x="984.8" y="1577.2" type="curve" smooth="yes"/>
      <point x="600.4" y="1577.2"/>
      <point x="176" y="1333.4"/>
      <point x="176" y="762.8" type="curve" smooth="yes"/>
      <point x="176" y="192.2"/>
      <point x="600" y="-48"/>
    </contour>
  </outline>
</glyph>
<glyph name="guillemotleft" format="1">
  <advance width="1011.600"/>
  <unicode hex="00AB"/>
  <outline>
    <contour>
      <point x="413.2" y="163.2" type="line"/>
      <point x="465" y="176" type="line"/>
      <point x="209.2" y="540.2" type="line"/>
      <point x="473.6" y="898.2" type="line"/>
      <point x="417.4" y="911.2" type="line"/>
      <point x="144.2" y="537.2" type="line"/>
    </contour>
    <contour>
      <point x="724.6" y="163.2" type="line"/>
      <point x="776.4" y="176" type="line"/>
      <point x="519.4" y="540.2" type="line"/>
      <point x="784" y="898.2" type="line"/>
      <point x="727.8" y="911.2" type="line"/>
      <point x="455.6" y="537.2" type="line"/>
    </contour>
  </outline>
</glyph>
<glyph name="logicalnot" format="1">
  <advance width="1220.200"/>
  <unicode hex="00AC"/>
  <outline>
    <contour>
      <point x="112.4" y="777.6" type="line"/>
      <point x="112.4" y="707.4" type="line"/>
      <point x="996.2" y="707.4" type="line"/>
      <point x="996.2" y="262.8" type="line"/>
      <point x="1061.8" y="262.8" type="line"/>
      <point x="1061.8" y="777.6" type="line"/>
    </contour>
  </outline>
</glyph>
<glyph name="uni00AD" format="1">
  <advance width="1175.2"/>
  <unicode hex="00AD"/>
  <outline>
    <contour>
      <point x="149.2" y="90" type="line"/>
      <point x="1011.2" y="90" type="line"/>
      <point x="1011.2" y="165" type="line"/>
      <point x="149.2" y="165" type="line"/>
    </contour>
  </outline>
</glyph>
<glyph name="registered" format="1">
  <advance width="1975"/>
  <unicode hex="00AE"/>
  <outline>
    <contour>
      <point x="176.4" y="764.2" type="curve" smooth="yes"/>
      <point x="176.4" y="193.6"/>
      <point x="600.8" y="-46.6"/>
      <point x="985.2" y="-46.6" type="curve" smooth="yes"/>
      <point x="1369.2" y="-46.6"/>
      <point x="1798.4" y="193.6"/>
      <point x="1798.4" y="764.2" type="curve" smooth="yes"/>
      <point x="1798.4" y="1335"/>
      <point x="1369.4" y="1577.2"/>
      <point x="985.4" y="1577.2" type="curve" smooth="yes"/>
      <point x="601" y="1577.2"/>
      <point x="176.4" y="1334.8"/>
    </contour>
    <contour>
      <point x="1714.6" y="764.4" type="curve"/>
      <point x="1714.6" y="234.125"/>
      <point x="1323.9" y="14"/>
      <point x="985.2" y="14" type="curve"/>
      <point x="645.888" y="14"/>
      <point x="260.2" y="232.942"/>
      <point x="260.2" y="764.2" type="curve"/>
      <point x="260.2" y="1295.85"/>
      <point x="646.082" y="1515.6"/>
      <point x="985.4" y="1515.6" type="curve"/>
      <point x="1323.91" y="1515.6"/>
      <point x="1714.6" y="1294.67"/>
    </contour>
    <contour>
      <point x="677.4" y="1294" type="line"/>
      <point x="677.4" y="319.6" type="line"/>
      <point x="762.2" y="319.6" type="line"/>
      <point x="762.2" y="802.4" type="line"/>
      <point x="1053.6" y="802.4" type="line"/>
      <point x="1047.2" y="808.8"/>
      <point x="1279" y="319.6"/>
      <point x="1279" y="319.6" type="curve"/>
      <point x="1370.8" y="319.6" type="line"/>
      <point x="1370.8" y="319.6"/>
      <point x="1129.2" y="828.8"/>
      <point x="1140.6" y="813.6" type="curve"/>
      <point x="1270.8" y="812.4"/>
      <point x="1343.6" y="911.8"/>
      <point x="1343.6" y="1054.4" type="curve" smooth="yes"/>
      <point x="1343.6" y="1212"/>
      <point x="1296" y="1294"/>
      <point x="1022.6" y="1294" type="curve" smooth="yes"/>
    </contour>
    <contour>
      <point x="1266" y="1049" type="curve" smooth="yes"/>
      <point x="1266" y="940.6"/>
      <point x="1239.4" y="875.6"/>
      <point x="1081.8" y="875.6" type="curve" smooth="yes"/>
      <point x="763.6" y="875.6" type="line"/>
      <point x="763.6" y="1220.8" type="line"/>
      <point x="1022.2" y="1220.8" type="line" smooth="yes"/>
      <point x="1205.8" y="1220.8"/>
      <point x="1266" y="1190.6"/>
    </contour>
  </outline>
</glyph>
<glyph name="degree" format="1">
  <advance width="852.2"/>
  <unicode hex="00B0"/>
  <outline>
    <contour>
      <point x="425.4" y="988.8" type="curve" smooth="yes"/>
      <point x="296.2" y="988.8"/>
      <point x="199.8" y="1083.4"/>
      <point x="199.8" y="1211.8" type="curve" smooth="yes"/>
      <point x="199.8" y="1340.8"/>
      <point x="298.6" y="1435.8"/>
      <point x="425.2" y="1435.8" type="curve" smooth="yes"/>
      <point x="556" y="1435.8"/>
      <point x="653.8" y="1340.8"/>
      <point x="653.8" y="1211.8" type="curve" smooth="yes"/>
      <point x="653.8" y="1085.8"/>
      <point x="555.8" y="988.8"/>
    </contour>
    <contour>
      <point x="424.2" y="927" type="curve" smooth="yes"/>
      <point x="565.2" y="927"/>
      <point x="723.4" y="1037.6"/>
      <point x="723.4" y="1211.6" type="curve" smooth="yes"/>
      <point x="723.4" y="1390.8"/>
      <point x="562.6" y="1498"/>
      <point x="424.2" y="1498" type="curve" smooth="yes"/>
      <point x="292.4" y="1498"/>
      <point x="130" y="1390.8"/>
      <point x="130" y="1211.6" type="curve" smooth="yes"/>
      <point x="130" y="1027"/>
      <point x="295.4" y="927"/>
    </contour>
  </outline>
</glyph>
<glyph name="plusminus" format="1">
  <advance width="1171.800"/>
  <unicode hex="00B1"/>
  <outline>
    <contour>
      <point x="536" y="1042" type="line"/>
      <point x="536" y="637.6" type="line"/>
      <point x="150.4" y="637.6" type="line"/>
      <point x="150.4" y="588.4" type="line"/>
      <point x="536" y="588.4" type="line"/>
      <point x="536" y="173.8" type="line"/>
      <point x="605.6" y="173.8" type="line"/>
      <point x="605.6" y="588.4" type="line"/>
      <point x="980.6" y="588.4" type="line"/>
      <point x="980.6" y="637.6" type="line"/>
      <point x="605.8" y="637.6" type="line"/>
      <point x="605.8" y="1042" type="line"/>
    </contour>
    <contour>
      <point x="113.2" y="64.8" type="line"/>
      <point x="113.2" y="0" type="line"/>
      <point x="1058.6" y="0" type="line"/>
      <point x="1058.6" y="64.8" type="line"/>
    </contour>
  </outline>
</glyph>
<glyph name="twosuperior" format="1">
  <advance width="730"/>
  <unicode hex="00B2"/>
  <outline>
    <contour>
      <point x="147" y="696" type="line"/>
      <point x="622" y="696" type="line"/>
      <point x="622" y="754" type="line"/>
      <point x="240" y="754" type="line"/>
      <point x="505" y="1039"/>
      <point x="624" y="1104"/>
      <point x="624" y="1281" type="curve" smooth="yes"/>
      <point x="624" y="1440"/>
      <point x="509" y="1521"/>
      <point x="364" y="1521" type="curve" smooth="yes"/>
      <point x="231" y="1521"/>
      <point x="135" y="1471"/>
      <point x="65" y="1385" type="curve"/>
      <point x="111" y="1341" type="line"/>
      <point x="176" y="1416"/>
      <point x="249" y="1461"/>
      <point x="371" y="1461" type="curve" smooth="yes"/>
      <point x="488" y="1461"/>
      <point x="553" y="1386"/>
      <point x="553" y="1280" type="curve" smooth="yes"/>
      <point x="553" y="1158"/>
      <point x="473" y="1073"/>
      <point x="147" y="756" type="curve"/>
    </contour>
  </outline>
</glyph>
<glyph name="paragraph" format="1">
  <advance width="1117.6"/>
  <unicode hex="00B6"/>
  <outline>
    <contour>
      <point x="490" y="1592" type="line" smooth="yes"/>
      <point x="138" y="1592"/>
      <point x="129" y="1339"/>
      <point x="129" y="1252" type="curve" smooth="yes"/>
      <point x="129" y="1090"/>
      <point x="207" y="884"/>
      <point x="551" y="884" type="curve"/>
      <point x="551" y="-194" type="line"/>
      <point x="619" y="-194" type="line"/>
      <point x="619" y="1531" type="line"/>
      <point x="853" y="1531" type="line"/>
      <point x="853" y="-194" type="line"/>
      <point x="921" y="-194" type="line"/>
      <point x="921" y="1531" type="line"/>
      <point x="992" y="1531" type="line"/>
      <point x="992" y="1592" type="line"/>
    </contour>
  </outline>
</glyph>
<glyph name="periodcentered" format="1">
  <advance width="398"/>
  <unicode hex="00B7"/>
  <outline>
    <contour>
      <point x="134" y="547" type="line"/>
      <point x="258" y="547" type="line"/>
      <point x="258" y="707" type="line"/>
      <point x="134" y="707" type="line"/>
    </contour>
    <contour>
      <point x="199" y="626" type="move" name="_mid_2"/>
    </contour>
  </outline>
</glyph>
<glyph name="onequarter" format="1">
  <advance width="1628.200"/>
  <unicode hex="00BC"/>
  <outline>
    <contour>
      <point x="98" y="645.4" type="line"/>
      <point x="507.2" y="645.4" type="line"/>
      <point x="507.2" y="717.8" type="line"/>
      <point x="363" y="717.8" type="line"/>
      <point x="363" y="1512.4" type="line"/>
      <point x="279.8" y="1512.2" type="line"/>
      <point x="233" y="1465.4"/>
      <point x="155.4" y="1435.2"/>
      <point x="94.2" y="1413.6" type="curve"/>
      <point x="94.2" y="1340.4" type="line"/>
      <point x="153" y="1360.8"/>
      <point x="230.8" y="1385.8"/>
      <point x="268" y="1412.4" type="curve"/>
      <point x="268" y="717.8" type="line"/>
      <point x="98" y="717.8" type="line"/>
    </contour>
    <contour>
      <point x="1358.2" y="-0.6" type="line"/>
      <point x="1450.8" y="-0.6" type="line"/>
      <point x="1450.6" y="201.4" type="line"/>
      <point x="1582.2" y="201.4" type="line"/>
      <point x="1570.8" y="274" type="line"/>
      <point x="1452.8" y="274" type="line"/>
      <point x="1452.8" y="838" type="line"/>
      <point x="1348.2" y="838" type="line"/>
      <point x="978.4" y="250.4" type="line"/>
      <point x="978.4" y="201.4" type="line"/>
      <point x="1358.2" y="201.4" type="line"/>
    </contour>
    <contour>
      <point x="389.6" y="0" type="line"/>
      <point x="466.2" y="0" type="line"/>
      <point x="1337" y="1525.6" type="line"/>
      <point x="1260.4" y="1525.6" type="line"/>
    </contour>
    <contour>
      <point x="1085.6" y="274" type="line"/>
      <point x="1358.6" y="699.6" type="line"/>
      <point x="1358.6" y="274" type="line"/>
    </contour>
  </outline>
</glyph>
<glyph name="onehalf" format="1">
  <advance width="1683"/>
  <unicode hex="00BD"/>
  <outline>
    <contour>
      <point x="113" y="684" type="line"/>
      <point x="501" y="684" type="line"/>
      <point x="501" y="740" type="line"/>
      <point x="354" y="740" type="line"/>
      <point x="354" y="1512" type="line"/>
      <point x="292" y="1512" type="line"/>
      <point x="245" y="1465"/>
      <point x="167" y="1435"/>
      <point x="106" y="1414" type="curve"/>
      <point x="106" y="1354" type="line"/>
      <point x="165" y="1375"/>
      <point x="243" y="1406"/>
      <point x="280" y="1432" type="curve"/>
      <point x="280" y="740" type="line"/>
      <point x="113" y="740" type="line"/>
    </contour>
    <contour>
      <point x="1040" y="0" type="line"/>
      <point x="1550" y="0" type="line"/>
      <point x="1546" y="68" type="line"/>
      <point x="1141" y="68" type="line"/>
      <point x="1235.42" y="160.683"/>
      <point x="1314.92" y="232.727"/>
      <point x="1378.42" y="294.326" type="curve" smooth="yes"/>
      <point x="1497.17" y="409.518"/>
      <point x="1560" y="488.188"/>
      <point x="1560" y="597" type="curve" smooth="yes"/>
      <point x="1560" y="746"/>
      <point x="1452" y="838"/>
      <point x="1301" y="838" type="curve" smooth="yes"/>
      <point x="1168" y="838"/>
      <point x="1063" y="772"/>
      <point x="1006" y="659" type="curve"/>
      <point x="1066" y="623" type="line"/>
      <point x="1127" y="724"/>
      <point x="1202" y="767"/>
      <point x="1301" y="767" type="curve" smooth="yes"/>
      <point x="1413" y="767"/>
      <point x="1480" y="698"/>
      <point x="1480" y="597" type="curve" smooth="yes"/>
      <point x="1480" y="509.593"/>
      <point x="1438.32" y="449.088"/>
      <point x="1329.31" y="340.152" type="curve" smooth="yes"/>
      <point x="1261.22" y="272.113"/>
      <point x="1166.87" y="185.18"/>
      <point x="1040" y="61" type="curve"/>
    </contour>
    <contour>
      <point x="376" y="0" type="line"/>
      <point x="452" y="0" type="line"/>
      <point x="1323" y="1526" type="line"/>
      <point x="1246" y="1526" type="line"/>
    </contour>
  </outline>
</glyph>
<glyph name="threequarters" format="1">
  <advance width="1711.200"/>
  <unicode hex="00BE"/>
  <outline>
    <contour>
      <point x="356" y="638" type="curve" smooth="yes"/>
      <point x="498" y="638"/>
      <point x="621" y="725"/>
      <point x="620.8" y="880.4" type="curve" smooth="yes"/>
      <point x="621" y="986"/>
      <point x="568" y="1062"/>
      <point x="445" y="1100" type="curve"/>
      <point x="543" y="1125"/>
      <point x="602" y="1194"/>
      <point x="602" y="1287" type="curve" smooth="yes"/>
      <point x="602" y="1439"/>
      <point x="495" y="1513"/>
      <point x="366" y="1513" type="curve" smooth="yes"/>
      <point x="283" y="1513"/>
      <point x="190" y="1482"/>
      <point x="115.6" y="1420" type="curve"/>
      <point x="154" y="1357" type="line"/>
      <point x="215" y="1407"/>
      <point x="292" y="1437"/>
      <point x="359" y="1437" type="curve" smooth="yes"/>
      <point x="441" y="1437"/>
      <point x="508" y="1392"/>
      <point x="507.6" y="1288.8" type="curve" smooth="yes"/>
      <point x="507.6" y="1186.2"/>
      <point x="411" y="1133"/>
      <point x="301" y="1133" type="curve" smooth="yes"/>
      <point x="239" y="1133" type="line"/>
      <point x="239" y="1053" type="line"/>
      <point x="307" y="1053" type="line" smooth="yes"/>
      <point x="433" y="1053"/>
      <point x="524" y="995"/>
      <point x="524" y="885" type="curve" smooth="yes"/>
      <point x="524" y="772"/>
      <point x="451" y="717"/>
      <point x="358" y="717" type="curve" smooth="yes"/>
      <point x="294" y="717"/>
      <point x="220" y="743"/>
      <point x="153" y="795" type="curve"/>
      <point x="113.8" y="725.6" type="line"/>
      <point x="188" y="666"/>
      <point x="275" y="638"/>
    </contour>
    <contour>
      <point x="1368" y="-2.8" type="line"/>
      <point x="1460.6" y="-2.8" type="line"/>
      <point x="1460.4" y="197.6" type="line"/>
      <point x="1592" y="197.6" type="line"/>
      <point x="1580.4" y="270.4" type="line"/>
      <point x="1462.6" y="270.4" type="line"/>
      <point x="1462.6" y="833.4" type="line"/>
      <point x="1358.2" y="833.4" type="line"/>
      <point x="988" y="247.8" type="line"/>
      <point x="988" y="197.6" type="line"/>
      <point x="1368" y="197.6" type="line"/>
    </contour>
    <contour>
      <point x="446.6" y="-4" type="line"/>
      <point x="522.6" y="-4" type="line"/>
      <point x="1394" y="1525.6" type="line"/>
      <point x="1318" y="1525.6" type="line"/>
    </contour>
    <contour>
      <point x="1095.6" y="270.4" type="line"/>
      <point x="1368.4" y="696.4" type="line"/>
      <point x="1368.4" y="270.4" type="line"/>
    </contour>
  </outline>
</glyph>
<glyph name="germandbls" format="1">
  <advance width="1183.600"/>
  <unicode hex="00DF"/>
  <outline>
    <contour>
      <point x="793.8" y="-18.4" type="curve" smooth="yes"/>
      <point x="981.8" y="-18.4"/>
      <point x="1087.8" y="101.8"/>
      <point x="1087.8" y="272.4" type="curve" smooth="yes"/>
      <point x="1087.8" y="555.2"/>
      <point x="687.8" y="615.6"/>
      <point x="687.8" y="745.2" type="curve" smooth="yes"/>
      <point x="687.8" y="851.2"/>
      <point x="923.4" y="1010"/>
      <point x="923.4" y="1196.8" type="curve" smooth="yes"/>
      <point x="923.4" y="1353.2"/>
      <point x="822.2" y="1494.4"/>
      <point x="599.8" y="1494.4" type="curve" smooth="yes"/>
      <point x="298" y="1494.4"/>
      <point x="204" y="1315.8"/>
      <point x="204" y="1025.2" type="curve" smooth="yes"/>
      <point x="204" y="0" type="line"/>
      <point x="298.2" y="0" type="line"/>
      <point x="298.2" y="1037" type="line" smooth="yes"/>
      <point x="298.2" y="1329.8"/>
      <point x="389.6" y="1422.2"/>
      <point x="596.8" y="1422.2" type="curve" smooth="yes"/>
      <point x="758.2" y="1422.2"/>
      <point x="824.4" y="1324.6"/>
      <point x="823.2" y="1199.6" type="curve" smooth="yes"/>
      <point x="822" y="970.4"/>
      <point x="610.8" y="902.8"/>
      <point x="610.8" y="740" type="curve" smooth="yes"/>
      <point x="610.8" y="540.2"/>
      <point x="1002.8" y="493.2"/>
      <point x="1002.8" y="259.8" type="curve" smooth="yes"/>
      <point x="1002.8" y="180.8"/>
      <point x="961.4" y="61"/>
      <point x="799.8" y="61" type="curve" smooth="yes"/>
      <point x="665.4" y="61"/>
      <point x="556.8" y="105.6"/>
      <point x="490.6" y="141" type="curve"/>
      <point x="458.4" y="62.6" type="line"/>
      <point x="508" y="28.6"/>
      <point x="644.6" y="-18.4"/>
    </contour>
  </outline>
</glyph>
<glyph name="ae" format="1">
  <advance width="1819.400"/>
  <unicode hex="00E6"/>
  <outline>
    <contour>
      <point x="1311.8" y="-19" type="curve" smooth="yes"/>
      <point x="1462.4" y="-19"/>
      <point x="1563.6" y="18"/>
      <point x="1667.8" y="71.2" type="curve"/>
      <point x="1638.4" y="131.8" type="line"/>
      <point x="1501.2" y="66.6"/>
      <point x="1428.8" y="54.8"/>
      <point x="1327.6" y="54.8" type="curve"/>
      <point x="1107.2" y="54.4"/>
      <point x="937.4" y="186.2"/>
      <point x="927.4" y="528.6" type="curve"/>
      <point x="1502" y="528.6"/>
      <point x="1670.2" y="555.4"/>
      <point x="1670.2" y="797.4" type="curve" smooth="yes"/>
      <point x="1670.2" y="940.4"/>
      <point x="1539" y="1068.6"/>
      <point x="1302.8" y="1068.6" type="curve" smooth="yes"/>
      <point x="1132.4" y="1068.6"/>
      <point x="938.8" y="967.2"/>
      <point x="910.6" y="763.6" type="curve"/>
      <point x="907.4" y="988"/>
      <point x="747.8" y="1069.8"/>
      <point x="543.4" y="1069.8" type="curve" smooth="yes"/>
      <point x="431" y="1069.8"/>
      <point x="281.8" y="1032.2"/>
      <point x="197.8" y="985.6" type="curve"/>
      <point x="231.4" y="915.8" type="line"/>
      <point x="332.6" y="973.2"/>
      <point x="469.4" y="998.8"/>
      <point x="575.6" y="998.8" type="curve"/>
      <point x="769" y="1000"/>
      <point x="842.2" y="894.8"/>
      <point x="842.2" y="723.4" type="curve" smooth="yes"/>
      <point x="842.2" y="595.6" type="line"/>
      <point x="634.4" y="595.6" type="line" smooth="yes"/>
      <point x="272.6" y="595.6"/>
      <point x="135" y="496.8"/>
      <point x="135" y="292.8" type="curve" smooth="yes"/>
      <point x="135" y="60.2"/>
      <point x="290.2" y="-12.8"/>
      <point x="456.6" y="-12.8" type="curve" smooth="yes"/>
      <point x="626.6" y="-12.8"/>
      <point x="839.4" y="74.6"/>
      <point x="926.4" y="188.6" type="curve"/>
      <point x="1004.8" y="55.6"/>
      <point x="1141.6" y="-19"/>
    </contour>
    <contour>
      <point x="468.6" y="69.8" type="curve" smooth="yes"/>
      <point x="332.4" y="69.8"/>
      <point x="230" y="140"/>
      <point x="230" y="310.6" type="curve" smooth="yes"/>
      <point x="230" y="467.4"/>
      <point x="315.4" y="532.2"/>
      <point x="664.6" y="532.2" type="curve" smooth="yes"/>
      <point x="841.2" y="532.2" type="line"/>
      <point x="840.4" y="447"/>
      <point x="852.6" y="347.4"/>
      <point x="888.6" y="260.6" type="curve"/>
      <point x="796.8" y="149.4"/>
      <point x="612.4" y="69.8"/>
    </contour>
    <contour>
      <point x="932" y="589.6" type="curve"/>
      <point x="953.8" y="812.2"/>
      <point x="1074" y="993.4"/>
      <point x="1304.4" y="993.4" type="curve" smooth="yes"/>
      <point x="1499.4" y="993.4"/>
      <point x="1593.6" y="885.8"/>
      <point x="1593.6" y="782" type="curve" smooth="yes"/>
      <point x="1593.6" y="614.4"/>
      <point x="1381.8" y="589.6"/>
    </contour>
    <contour>
      <point x="934" y="1052" type="move" name="top"/>
    </contour>
  </outline>
</glyph>
<glyph name="divide" format="1">
  <advance width="1021.400"/>
  <unicode hex="00F7"/>
  <outline>
    <contour>
      <point x="53.4" y="608" type="line"/>
      <point x="53.4" y="515.2" type="line"/>
      <point x="941.6" y="515.2" type="line"/>
      <point x="941.6" y="608" type="line"/>
    </contour>
    <contour>
      <point x="432.8" y="189.8" type="line"/>
      <point x="432.8" y="40.6" type="line"/>
      <point x="564.2" y="40.6" type="line"/>
      <point x="564.2" y="189.8" type="line"/>
    </contour>
    <contour>
      <point x="432.8" y="1046.2" type="line"/>
      <point x="432.8" y="895.8" type="line"/>
      <point x="562.6" y="895.8" type="line"/>
      <point x="562.6" y="1046.2" type="line"/>
    </contour>
  </outline>
</glyph>
<glyph name="Hbar" format="1">
  <advance width="1751.400"/>
  <unicode hex="0126"/>
  <outline>
    <contour>
      <point x="1343.6" y="1488.4" type="line"/>
      <point x="1343.6" y="1152.2" type="line"/>
      <point x="370.6" y="1152.2" type="line"/>
      <point x="370.6" y="1488.4" type="line"/>
      <point x="311.6" y="1488.4" type="line"/>
      <point x="311.6" y="1152.2" type="line"/>
      <point x="214.6" y="1152.2" type="line"/>
      <point x="214.6" y="1094.6" type="line"/>
      <point x="311.6" y="1094.6" type="line"/>
      <point x="311.6" y="0" type="line"/>
      <point x="370.6" y="0" type="line"/>
      <point x="370.6" y="719.8" type="line"/>
      <point x="1343.6" y="719.8" type="line"/>
      <point x="1343.6" y="0" type="line"/>
      <point x="1402.2" y="0" type="line"/>
      <point x="1402.2" y="1094.6" type="line"/>
      <point x="1499.2" y="1094.6" type="line"/>
      <point x="1499.2" y="1152.2" type="line"/>
      <point x="1402.2" y="1152.2" type="line"/>
      <point x="1402.2" y="1488.4" type="line"/>
    </contour>
    <contour>
      <point x="1343.6" y="811.4" type="line"/>
      <point x="370.6" y="811.4" type="line"/>
      <point x="370.6" y="1094.6" type="line"/>
      <point x="1343.6" y="1094.6" type="line"/>
    </contour>
  </outline>
</glyph>
<glyph name="kgreenlandic" format="1">
  <advance width="1055"/>
  <unicode hex="0138"/>
  <outline>
    <contour>
      <point x="911" y="1052" type="line"/>
      <point x="243" y="447" type="line"/>
      <point x="274" y="447" type="line"/>
      <point x="281" y="679" type="line"/>
      <point x="281" y="1052" type="line"/>
      <point x="188" y="1052" type="line"/>
      <point x="188" y="0" type="line"/>
      <point x="281" y="0" type="line"/>
      <point x="281" y="417" type="line"/>
      <point x="251" y="359" type="line"/>
      <point x="452" y="538" type="line"/>
      <point x="394" y="538" type="line"/>
      <point x="908" y="0" type="line"/>
      <point x="1017" y="0" type="line"/>
      <point x="451" y="584" type="line"/>
      <point x="451" y="540" type="line"/>
      <point x="1014" y="1052" type="line"/>
    </contour>
  </outline>
</glyph>
<glyph name="florin" format="1">
  <advance width="600"/>
  <unicode hex="0192"/>
  <outline>
    <contour>
      <point x="428" y="932" type="curve" smooth="yes"/>
      <point x="399" y="782" type="line"/>
      <point x="237" y="782" type="line"/>
      <point x="220" y="698" type="line"/>
      <point x="385" y="698" type="line"/>
      <point x="271" y="123" type="line" smooth="yes"/>
      <point x="237" y="-49"/>
      <point x="230.667" y="-214"/>
      <point x="-36" y="-161" type="curve"/>
      <point x="-45" y="-206" type="line"/>
      <point x="203" y="-263"/>
      <point x="296" y="-196"/>
      <point x="358" y="122" type="curve" smooth="yes"/>
      <point x="471" y="698" type="line"/>
      <point x="727" y="698" type="line"/>
      <point x="744" y="782" type="line"/>
      <point x="489" y="782" type="line"/>
      <point x="522" y="954" type="line" smooth="yes"/>
      <point x="551" y="1104"/>
      <point x="607" y="1167"/>
      <point x="705" y="1167" type="curve" smooth="yes"/>
      <point x="797" y="1167"/>
      <point x="843" y="1102"/>
      <point x="843" y="1001" type="curve"/>
      <point x="905" y="1001" type="line"/>
      <point x="905" y="1187"/>
      <point x="814" y="1234"/>
      <point x="698" y="1234" type="curve" smooth="yes"/>
      <point x="517" y="1234"/>
      <point x="461" y="1105"/>
    </contour>
  </outline>
</glyph>
<glyph name="apostrophemod" format="1">
  <advance width="640"/>
  <unicode hex="02BC"/>
  <outline>
    <contour>
      <point x="165.6" y="1210.2" type="line"/>
      <point x="232.4" y="1210.2" type="line"/>
      <point x="448.6" y="1617" type="line"/>
      <point x="363.8" y="1617" type="line"/>
    </contour>
    <contour>
      <point x="223" y="1052" type="move" name="_top"/>
    </contour>
  </outline>
</glyph>
<glyph name="circumflex" format="1">
  <advance width="844.400"/>
  <unicode hex="02C6"/>
  <outline>
    <contour>
      <point x="182" y="1172" type="line"/>
      <point x="237" y="1172" type="line"/>
      <point x="412" y="1426" type="line"/>
      <point x="586" y="1172" type="line"/>
      <point x="640" y="1172" type="line"/>
      <point x="478" y="1475" type="line"/>
      <point x="345" y="1475" type="line"/>
    </contour>
    <contour>
      <point x="422.2" y="1052" type="move" name="_top"/>
    </contour>
  </outline>
</glyph>
<glyph name="dotaccent" format="1">
  <advance width="288"/>
  <unicode hex="02D9"/>
  <outline>
    <contour>
      <point x="213" y="1292" type="curve" smooth="yes"/>
      <point x="213" y="1339"/>
      <point x="192" y="1363"/>
      <point x="144" y="1363" type="curve" smooth="yes"/>
      <point x="95" y="1363"/>
      <point x="74" y="1339"/>
      <point x="74" y="1292" type="curve" smooth="yes"/>
      <point x="74" y="1245"/>
      <point x="95" y="1221"/>
      <point x="144" y="1221" type="curve" smooth="yes"/>
      <point x="192" y="1221"/>
      <point x="213" y="1245"/>
    </contour>
    <contour>
      <point x="149" y="1052" type="move" name="_top"/>
    </contour>
  </outline>
</glyph>
<glyph name="tilde" format="1">
  <advance width="1006.8"/>
  <unicode hex="02DC"/>
  <outline>
    <contour>
      <point x="195.4" y="1329" type="curve"/>
      <point x="244.6" y="1329" type="line"/>
      <point x="246.2" y="1398"/>
      <point x="271.2" y="1429.2"/>
      <point x="307.8" y="1429.2" type="curve" smooth="yes"/>
      <point x="386.2" y="1429.2"/>
      <point x="522" y="1329"/>
      <point x="621.2" y="1329" type="curve" smooth="yes"/>
      <point x="658.6" y="1329"/>
      <point x="729" y="1332.8"/>
      <point x="729" y="1491.2" type="curve"/>
      <point x="675" y="1491.2" type="line"/>
      <point x="671.8" y="1422.6"/>
      <point x="649.2" y="1399.8"/>
      <point x="614.8" y="1399.8" type="curve" smooth="yes"/>
      <point x="546.4" y="1399.8"/>
      <point x="428.8" y="1492.4"/>
      <point x="322" y="1492.4" type="curve" smooth="yes"/>
      <point x="271.4" y="1492.4"/>
      <point x="195.4" y="1482.2"/>
    </contour>
    <contour>
      <point x="503.4" y="1052" type="move" name="_top"/>
    </contour>
  </outline>
</glyph>
<glyph name="Delta" format="1">
  <advance width="1361"/>
  <unicode hex="0394"/>
  <outline>
    <contour>
      <point x="128" y="0" type="line"/>
      <point x="1211" y="0" type="line"/>
      <point x="1211" y="83" type="line"/>
      <point x="716" y="1500" type="line"/>
      <point x="610" y="1500" type="line"/>
      <point x="128" y="83" type="line"/>
    </contour>
    <contour>
      <point x="227" y="119" type="line"/>
      <point x="617" y="1303" type="line"/>
      <point x="649" y="1418" type="line"/>
      <point x="683" y="1303" type="line"/>
      <point x="1081" y="119" type="line"/>
    </contour>
  </outline>
</glyph>
<glyph name="endash" format="1">
  <advance width="1325.400"/>
  <unicode hex="2013"/>
  <outline>
    <contour>
      <point x="149.2" y="579.2" type="line"/>
      <point x="1128" y="579.2" type="line"/>
      <point x="1128" y="670.2" type="line"/>
      <point x="149.2" y="670.2" type="line"/>
    </contour>
  </outline>
</glyph>
<glyph name="emdash" format="1">
  <advance width="2687.2"/>
  <unicode hex="2014"/>
  <outline>
    <contour>
      <point x="212" y="579.2" type="line"/>
      <point x="2432.4" y="579.2" type="line"/>
      <point x="2432.4" y="670.2" type="line"/>
      <point x="212" y="670.2" type="line"/>
    </contour>
  </outline>
</glyph>
<glyph name="quoteright" format="1">
  <advance width="509"/>
  <unicode hex="2019"/>
  <outline>
    <contour>
      <point x="187.2" y="1006.4" type="line"/>
      <point x="227.4" y="1006.4" type="line"/>
      <point x="328.4" y="1454.8" type="line"/>
      <point x="261.2" y="1454.8" type="line"/>
    </contour>
  </outline>
</glyph>
<glyph name="quotesinglbase" format="1">
  <advance width="400.400"/>
  <unicode hex="201A"/>
  <outline>
    <contour>
      <point x="93.8" y="-252.8" type="line"/>
      <point x="136.2" y="-252.8" type="line"/>
      <point x="238.2" y="179.2" type="line"/>
      <point x="165.2" y="179.2" type="line"/>
    </contour>
  </outline>
</glyph>
<glyph name="quotedblleft" format="1">
  <advance width="843.400"/>
  <unicode hex="201C"/>
  <outline>
    <contour>
      <point x="198.2" y="1006.4" type="line"/>
      <point x="295.4" y="1006.4" type="line"/>
      <point x="350.4" y="1454.8" type="line"/>
      <point x="313.6" y="1454.8" type="line"/>
    </contour>
    <contour>
      <point x="486" y="1006" type="line"/>
      <point x="583" y="1006" type="line"/>
      <point x="638" y="1455" type="line"/>
      <point x="602" y="1455" type="line"/>
    </contour>
  </outline>
</glyph>
<glyph name="quotedblright" format="1">
  <advance width="569.800"/>
  <unicode hex="201D"/>
  <outline>
    <contour>
      <point x="77.2" y="1163.6" type="line"/>
      <point x="117" y="1163.6" type="line"/>
      <point x="232" y="1601.2" type="line"/>
      <point x="149.4" y="1601.2" type="line"/>
    </contour>
    <contour>
      <point x="340.4" y="1169.6" type="line"/>
      <point x="390.8" y="1169.6" type="line"/>
      <point x="497.6" y="1601.2" type="line"/>
      <point x="417" y="1601.2" type="line"/>
    </contour>
  </outline>
</glyph>
<glyph name="quotedblbase" format="1">
  <advance width="586"/>
  <unicode hex="201E"/>
  <outline>
    <contour>
      <point x="113.2" y="-252.8" type="line"/>
      <point x="151.6" y="-252.8" type="line"/>
      <point x="241.6" y="179.2" type="line"/>
      <point x="177" y="179.2" type="line"/>
    </contour>
    <contour>
      <point x="330.4" y="-252.8" type="line"/>
      <point x="362.8" y="-252.8" type="line"/>
      <point x="461.6" y="179.2" type="line"/>
      <point x="389.4" y="179.2" type="line"/>
    </contour>
  </outline>
</glyph>
<glyph name="daggerdbl" format="1">
  <advance width="1057.200"/>
  <unicode hex="2021"/>
  <outline>
    <contour>
      <point x="431.2" y="1454.4" type="line"/>
      <point x="431.2" y="1048.2" type="line"/>
      <point x="141.6" y="1048.2" type="line"/>
      <point x="141.6" y="1012.8" type="line"/>
      <point x="431.2" y="1012.8" type="line"/>
      <point x="431.2" y="544.6" type="line"/>
      <point x="142" y="544.6" type="line"/>
      <point x="142" y="508" type="line"/>
      <point x="431.2" y="508" type="line"/>
      <point x="431.2" y="152.4" type="line"/>
      <point x="478.6" y="152.4" type="line"/>
      <point x="478.6" y="508" type="line"/>
      <point x="762.8" y="508" type="line"/>
      <point x="762.8" y="544.6" type="line"/>
      <point x="478.6" y="544.6" type="line"/>
      <point x="478.8" y="1012.8" type="line"/>
      <point x="762.2" y="1012.8" type="line"/>
      <point x="762.2" y="1048.2" type="line"/>
      <point x="471.6" y="1048.2" type="line"/>
      <point x="471.6" y="1454.4" type="line"/>
    </contour>
  </outline>
</glyph>
<glyph name="guilsinglright" format="1">
  <advance width="676.600"/>
  <unicode hex="203A"/>
  <outline>
    <contour>
      <point x="162.4" y="137.8" type="line"/>
      <point x="237.6" y="137.8" type="line"/>
      <point x="560" y="579.8" type="line"/>
      <point x="241.2" y="1006.6" type="line"/>
      <point x="167.2" y="1006.6" type="line"/>
      <point x="479.6" y="581" type="line"/>
    </contour>
  </outline>
</glyph>
<glyph name="fraction" format="1">
  <advance width="1215.400"/>
  <unicode hex="2044"/>
  <outline>
    <contour>
      <point x="198.8" y="0" type="line"/>
      <point x="282.6" y="0" type="line"/>
      <point x="1002" y="1576" type="line"/>
      <point x="929.4" y="1576" type="line"/>
    </contour>
  </outline>
</glyph>
<glyph name="trademark" format="1">
  <advance width="1889.400"/>
  <unicode hex="2122"/>
  <outline>
    <contour>
      <point x="1271.4" y="674.8" type="line"/>
      <point x="1323.6" y="674.8" type="line"/>
      <point x="1688" y="1510.8" type="line"/>
      <point x="1688" y="551.8" type="line"/>
      <point x="1728.4" y="551.8" type="line"/>
      <point x="1728.4" y="1477.8" type="line"/>
      <point x="1654" y="1477.8" type="line"/>
      <point x="1305.8" y="686.6" type="line"/>
      <point x="972.6" y="1477.8" type="line"/>
      <point x="896.4" y="1477.8" type="line"/>
      <point x="896.4" y="551.8" type="line"/>
      <point x="930.2" y="551.8" type="line"/>
      <point x="930.2" y="1521" type="line"/>
    </contour>
    <contour>
      <point x="104.6" y="1477.8" type="line"/>
      <point x="103.2" y="1448.4" type="line"/>
      <point x="369.4" y="1448.4" type="line"/>
      <point x="369.4" y="551.8" type="line"/>
      <point x="407.8" y="551.8" type="line"/>
      <point x="407.8" y="1448.4" type="line"/>
      <point x="690.8" y="1448.4" type="line"/>
      <point x="690.8" y="1477.8" type="line"/>
    </contour>
  </outline>
</glyph>
<glyph name="partialdiff" format="1">
  <advance width="1182"/>
  <unicode hex="2202"/>
  <outline>
    <contour>
      <point x="255" y="1439" type="line"/>
      <point x="598" y="1537"/>
      <point x="971" y="1332"/>
      <point x="946" y="917" type="curve"/>
      <point x="211" y="917"/>
      <point x="-67" y="-19"/>
      <point x="479" y="-19" type="curve" smooth="yes"/>
      <point x="811" y="-19"/>
      <point x="1026" y="380"/>
      <point x="1026" y="906" type="curve" smooth="yes"/>
      <point x="1026" y="1450"/>
      <point x="663" y="1688"/>
      <point x="244" y="1482" type="curve"/>
    </contour>
    <contour>
      <point x="944" y="454"/>
      <point x="751" y="34"/>
      <point x="486" y="34" type="curve" smooth="yes"/>
      <point x="76" y="34"/>
      <point x="334" y="860"/>
      <point x="946" y="860" type="curve"/>
    </contour>
  </outline>
</glyph>
<glyph name="notequal" format="1">
  <advance width="1164.8"/>
  <unicode hex="2260"/>
  <outline>
    <contour>
      <point x="275" y="53" type="line"/>
      <point x="453" y="378" type="line"/>
      <point x="1003.2" y="377.6" type="line"/>
      <point x="1003.4" y="448" type="line"/>
      <point x="484.8" y="448" type="line"/>
      <point x="698" y="832" type="line"/>
      <point x="1003.2" y="831.6" type="line"/>
      <point x="998.8" y="895.8" type="line"/>
      <point x="726" y="896" type="line"/>
      <point x="900" y="1214" type="line"/>
      <point x="833" y="1214" type="line"/>
      <point x="655" y="896" type="line"/>
      <point x="117.6" y="895.8" type="line"/>
      <point x="121" y="830.2" type="line"/>
      <point x="626" y="830" type="line"/>
      <point x="419" y="447.8" type="line"/>
      <point x="117.2" y="447.8" type="line"/>
      <point x="121" y="377.6" type="line"/>
      <point x="378" y="378" type="line"/>
      <point x="206" y="53" type="line"/>
    </contour>
  </outline>
</glyph>
<glyph name="lessequal" format="1">
  <advance width="1254"/>
  <unicode hex="2264"/>
  <outline>
    <contour>
      <point x="1046.8" y="228.8" type="line"/>
      <point x="1046.8" y="310.4" type="line"/>
      <point x="299.4" y="750.2" type="line"/>
      <point x="1046.8" y="1213.4" type="line"/>
      <point x="1046.8" y="1301" type="line"/>
      <point x="179.4" y="774.2" type="line"/>
      <point x="179.4" y="722.8" type="line"/>
    </contour>
    <contour>
      <point x="123" y="-0.4" type="line"/>
      <point x="1092.4" y="-0.4" type="line"/>
      <point x="1092.4" y="83" type="line"/>
      <point x="123" y="83" type="line"/>
    </contour>
  </outline>
</glyph>
<glyph name="greaterequal" format="1">
  <advance width="1249.200"/>
  <unicode hex="2265"/>
  <outline>
    <contour>
      <point x="180.4" y="1221" type="line"/>
      <point x="1027.8" y="758.4" type="line"/>
      <point x="174.6" y="328.8" type="line"/>
      <point x="174.6" y="248.2" type="line"/>
      <point x="1056.4" y="734.2" type="line"/>
      <point x="1056.4" y="782.2" type="line"/>
      <point x="180.4" y="1305.6" type="line"/>
    </contour>
    <contour>
      <point x="126.6" y="103.2" type="line"/>
      <point x="126.6" y="12.8" type="line"/>
      <point x="1086.8" y="12.8" type="line"/>
      <point x="1086.8" y="105.8" type="line"/>
    </contour>
  </outline>
</glyph>
